<?xml version="1.0" encoding="utf-8"?>
<!-- Generator: Adobe Illustrator 24.0.0, SVG Export Plug-In . SVG Version: 6.00 Build 0)  -->
<svg version="1.0" id="图层_1" xmlns="http://www.w3.org/2000/svg" xmlns:xlink="http://www.w3.org/1999/xlink" x="0px" y="0px"
	 width="1024px" height="1024px" viewBox="0 0 1024 1024" style="enable-background:new 0 0 1024 1024;" xml:space="preserve">
<style type="text/css">
	.st0{fill:#FFFFFF;}
</style>
<g>
	<path class="st0" d="M632.9,765.2c0.2,3.4-0.1,5.9,0.5,8c0.4,1.4,1.8,3,3.2,3.7c2.6,1.3,5.5,2.4,8.4,3c3.8,0.8,8.3,2.4,11.5,1
		c4.3-1.8,8.4-5.5,11-9.4c5.6-8.4,10.3-17.3,15.1-26.2c0.6-1.1-0.3-3.6-1.3-4.6c-2.4-2.4-5.2-3.3-9-2.1c-5.2,1.5-10.7,2.2-16.1,2.5
		c-6.4,0.4-10.2,5.2-15.1,8.1C634.1,753.2,631.6,758.7,632.9,765.2z M855.5,688.7c0.7-1.2,1.1-1.7,1.3-2.3c5-14.9,10.2-29.8,15-44.7
		c1.1-3.4,1.8-7.2,1.6-10.7c-0.3-5.3-4.1-6.7-8.1-3.4c-1,0.8-2,1.8-2.8,2.8c-5.3,7.2-10.7,14.4-15.9,21.7c-0.8,1.1-1,2.8-1.2,4.2
		c-0.4,3.6-1,7.3-0.9,10.9c0.1,2.8,0.6,5.8,1.6,8.5c0.9,2.2,2.8,3.9,4.2,5.9C852,683.8,853.6,686,855.5,688.7z M741.9,820.7
		c0.2,0.5,0.4,1,0.6,1.4c2.2-0.9,5.4-1.1,6.5-2.8c2.5-3.5,1-6.8-2.7-8.9c3.5-2.8,10-3,8.2-9.6c-0.7-2.8-8.8-4.4-11.8-2.7
		c-0.9,0.5-1.9,1.8-1.8,2.7c0.4,3.2,1.2,6.4,1.8,9.5c-1.3,1.5-3.1,3.4-4.9,5.4c-0.6-0.3-1.3-0.7-2.1-1.1c4.5-3.9,5.4-6.9,2.7-9.6
		c-2.4-2.4-8.5-3.1-10-0.9c-3.5,5,1,7.3,2.9,9.1c-1.2,2.9-2.9,5.2-2.7,7.3c0.1,1.8,2.2,4.3,3.9,4.9
		C736.8,826.8,739.9,824.6,741.9,820.7z M746,912c-0.4-0.1-0.8-0.2-1.2-0.3c0.4-0.5,0.9-0.9,1.3-1.4c2.5-2.5,3-5.6,0.5-7.9
		c-1.5-1.3-4.7-1.9-6.6-1.3c-3.4,1.1-3.5,4.2-2.8,7.5c0.3,1.3-0.4,3.1-1.2,4.4c-1.7,3.2-1.2,5.9,1.6,7.9c2.7,1.9,5.9,1.6,7.4-1.3
		C746.2,917.5,745.8,914.6,746,912z M707.1,783.1c-5.2,0-7,1.8-6.9,7.3c0,3.9,5.5,9.4,9.5,9.1c3.7-0.2,5.6-2.6,5.7-6.2
		C715.6,787.7,711.7,783.1,707.1,783.1z M677.2,815.4c1.9,1.8,3.9,5.1,6.4,5.6c2.2,0.4,5.4-1.9,7.6-3.7c3.1-2.6,0-4.6-1.6-6.5
		c-0.5-0.6-0.9-1.4-1.4-2c-1.1-1.1-2.4-3.1-3.4-3c-1.9,0.2-4.1,1.3-5.3,2.7C678.4,809.9,678.2,812.2,677.2,815.4z M799.6,829.1
		c4.5,0,8.4-2.5,8.4-5.4c0.1-3.5-5.3-8.2-9.4-8.1c-3.7,0.1-6.6,3-6.6,6.7C792.1,826.5,795.1,829.1,799.6,829.1z M768.1,913.9
		c0.1-4-3.1-7.3-7.1-7.3c-3.8,0-6.9,3-7,6.9c-0.1,4.1,3,7.3,7.1,7.3C764.9,920.7,768,917.7,768.1,913.9z M767.3,892.3
		c-5-0.1-8.4,2.5-8.4,5.9c0,3.5,3.7,7.6,6.8,7.5c3.1-0.1,7.2-4.5,7.1-8C772.7,893.9,770.1,892.7,767.3,892.3z M910.6,605.5
		c2.2,1.8,4.6,5.2,6.6,5c3.1-0.3,7.8-0.7,8.3-5.5c0.3-2.9-4.8-7.2-7.9-7.3C914.5,597.7,911.5,601,910.6,605.5z M716.9,811.8
		c-0.6-3.7-2.5-6.2-6.5-6.2c-3.9,0-6.2,2.2-6.5,6.1c-0.2,3.7,2.9,6.8,6.6,6.6C714.4,818,716.4,815.6,716.9,811.8z M895.4,607.4
		c-0.7,0.7-3.4,2.1-3.6,3.8c-0.6,4.1,3.4,8.8,6.4,8.7c3.2-0.2,7-3.8,7-6.7C905.2,610.1,901.3,607.4,895.4,607.4z M830.8,665.9
		c-5,0.3-6.6,3.1-6.7,6.5c0,1.5,1.7,4.1,3.1,4.5c3.7,0.9,11.5-3.8,10.4-5.6C836.1,668.9,833.1,667.6,830.8,665.9z M721.4,932.9
		c-0.5-3.6-2.7-5.7-6.3-5.5c-3.6,0.2-5.6,2.5-5.4,6.3c0.2,3.6,2.4,5.4,5.8,5.4C719.3,939,721.1,936.6,721.4,932.9z M692.8,780.9
		c-4.4,1.4-9.2,1-8.4,5.8c0.3,1.8,5.2,3.5,8.3,4.2c2.9,0.6,6.3-1,5.5-4.5C697.6,784.3,694.6,782.8,692.8,780.9z M721.4,920.4
		c-0.3-3.7-2.1-6.1-5.8-6.1c-3.6-0.1-5.8,2-5.9,5.8c0,3.6,1.9,5.6,5.3,5.8C718.9,926.1,720.8,923.9,721.4,920.4z M736.4,900.4
		c1.5-1.4,3.4-2.3,3.6-3.5c0.4-2.5,0.4-4.5,3.4-5.5c0.8-0.3,1.6-3.2,1.1-4.2c-0.7-1.3-2.7-2.5-4.2-2.5c-1.1,0-3.2,2-3.2,2.9
		c0.2,2.8-1.1,3.9-3.3,5c-0.9,0.5-1.5,3-1.1,4.2C733,898.2,734.8,899,736.4,900.4z M725.5,961.3c4.2,0,7.5,0.1,10.8-0.1
		c0.9-0.1,2.4-1.7,2.3-1.9c-1.2-2.4-2.3-5.2-4.3-6.6c-1.1-0.8-4.5,0.3-5.8,1.6C727,955.7,726.7,958.3,725.5,961.3z M872.1,688.8
		c1.5-0.7,2.8-1.4,4.2-2.1c-0.7-1.4-1.2-3-2.2-4c-1.6-1.4-3.4-2.8-5.4-3.3c-1.2-0.3-3.8,0.5-4.2,1.5c-0.6,1.4-0.4,4.2,0.6,5
		C866.8,687.4,869.5,687.8,872.1,688.8z M691.2,1019.4c3.3-0.6,5.7-0.7,7.9-1.4c1.2-0.4,2-1.7,3.1-2.6c-1.2-1.2-2.3-3.2-3.6-3.4
		c-2.2-0.3-4.7,0.1-6.8,1c-1.8,0.8-3,2.7-4.5,4.1C688.7,1017.9,690.3,1018.8,691.2,1019.4z M705.9,937.5c0-0.8,0-1.5,0.1-2.3
		c-1.9-1.4-3.6-3.6-5.7-4c-3.2-0.6-5.7,1.8-5.1,5c0.4,1.9,3,4.4,4.9,4.7C701.9,941.1,704,938.7,705.9,937.5z M700.6,801.7
		c0.1-0.7,0.1-1.5,0.2-2.2c-2.3-1.3-4.4-3.1-6.9-3.8c-0.8-0.3-2.4,1.8-3.7,2.8c1.9,2,3.5,4.4,5.7,5.9
		C696.6,804.8,699,802.7,700.6,801.7z M752.5,888.1c-0.7,0.1-1.3,0.1-2,0.2c-0.8,1.5-2.6,3.4-2.1,4.4c0.8,1.9,2.9,3.3,4.4,5
		c1.1-1.3,3.3-2.9,3.1-4C755.5,891.6,753.7,889.9,752.5,888.1z M774.1,718.3c-3-2-4.7-4.1-6.1-3.9c-1.5,0.2-3.4,2.5-3.7,4.1
		c-0.2,0.9,2.3,3.4,3.7,3.4C769.5,722.1,771.1,720.2,774.1,718.3z M788.3,724.3c-2.8-1.7-4.6-3.7-6-3.5c-1.5,0.3-2.7,2.6-4,4
		c1.5,1.3,2.8,3.5,4.4,3.6C784.1,728.6,785.7,726.4,788.3,724.3z"/>
	<path d="M808,0c2.6,1.4,5.1,3.2,7.9,4.2c1.8,0.6,4.2,0.5,6-0.2c3.9-1.6,6.7-1.1,10.4,1.6c10.6,7.7,16.9,18.6,23.9,29.1
		c0.7,1.1,2.7,1.4,4.5,2.2c-1.2,7.2,5.8,10.9,8.7,16.6c1.8,3.5,4.6,6.5,6.4,10c3.8,7.2,6.8,8.3,14.2,5.4c1.7-0.7,3.8-0.3,5.8-0.3
		c1.5,0,3,0.6,4.4,0.3c5-1.2,9,0.6,12.9,3.6c2.2,1.6,5.3,2.1,7.9,3c0.8,0.3,2.1,0.2,2.3,0.6c2.1,4.6,8.5,6.4,7.9,12.8
		c-0.3,3.6,3.7,6.7,7.4,6.2c3.2-0.4,6.8-0.1,9.7-1.3c4.3-1.7,8.8-3.8,12.2-6.9c6.7-6,12.7-12.7,18.9-19.1c2.3-2.4,4.3-4.9,7.1-8.1
		c0.3,3.4,0.9,6.3,0.6,9.1c-1.9,16.6,0.3,32.9,2.3,49.3c0.2,1.3-0.1,2.6-0.3,3.9c-0.7,5.4-1.6,10.8-2.1,16.2c-0.5,5.8-2,8.7-7.7,8
		c-9.7-1.2-15.6,3-19.9,12.2c0-0.9-0.1-0.5,0-0.3c9.8,9.9,8.8,23.6,12.2,35.6c0.7,2.4-2.9,6.1-4.4,9.2c-0.6-0.1-1.2-0.2-1.8-0.4
		c1.2,2.4,2.5,4.8,4.3,8.3c-2.4,0-4.4,0.6-5.7-0.1c-2.5-1.5-4.5-3.8-6.8-5.6c-1-0.8-2.3-1.3-3.5-2c-0.5,1.1-1.7,2.3-1.5,3.4
		c0.6,4.3-0.7,7.4-4.2,10c-1.2,0.9-1.6,2.8-2.2,4.3c-1.7,4-4.2,6.5-9,6.4c-4.8-0.1-5.5,1.6-3.2,5.8c0.5,0.9,1.2,1.6,1.6,2.5
		c1.9,4.2,0.2,7.6-4.4,7.7c-5.9,0-12.3,2.5-17.4-3.1c-0.3-0.3-4.8,1.8-4.8,2.9c-0.1,8.3-4.8,14.5-10.2,19.5
		c-7.7,7.1-13.6,15.1-18.1,24.5c-2.9,6-9.1,6.4-14.3,8c-1.2,1-2.2,2.4-3.5,2.8c-6.7,1.9-10.8,6.2-13.6,12.5
		c-1.7,3.8-3.8,7.7-6.6,10.7c-1.6,1.7-5,1.7-7.6,2.2c-0.5,0.1-1.9-1.5-1.7-2c0.4-1.8,1.1-3.7,2.2-5.1c1.6-2,3.7-3.7,6-5.8
		c-6.3-2.6-7.7-9.3-4.2-14.3c5.2-7.5,7.2-14-0.1-21c-0.2-0.2-0.2-0.6-0.4-0.9c-0.2-0.3-0.4-0.5-0.3-0.4c-2.5,0.6-4.9,0.9-7.2,1.7
		c-1.4,0.5-3.1,1.3-4,2.4c-2.5,3.5-4.9,7.2-6.8,11c-2,4.1-4.7,6.8-8.8,9.4c-4.3,2.8-7.6,8.2-9.7,13.2c-1.8,4.4-3.6,7.6-8.3,8.9
		c-1.6,0.4-3,1.4-4.5,1.9c-1.5,0.4-3.2,1-4.5,0.5c-4.9-1.7-9.4,1.6-9.4,7c0,1.1,0.1,2.5,0.7,3.4c3.1,4.2,6.4,8.2,9.7,12.3
		c3.4-2.7,11.8-2.1,15.5,0.7c3.3,2.5,3.3,2.7-0.9,12.7c4.2,0.8,8,1.9,11.9,2.3c3.4,0.3,5.7-1.1,5.7-5.2c0-1.2,1.3-2.5,2.1-3.7
		c1.1-1.5,2.4-2.8,3.3-4.4c2-3.5,10.6-5.5,14.8-2.9c5.6,3.5,11,5.8,16.8,0.5c0.5-0.4,1.8-0.1,2.8,0.1c2.6,0.5,5.3,1.2,8.9,2
		c0,0.2,0,2-0.7,3.5c-1,2.3-2.9,4.2-0.6,6.9c0.2,0.3-1.9,3.3-3.4,3.9c-1,0.4-2.8-1.1-5.2-2.2c-1,1.2-2.5,3.4-4.5,5.1
		c-0.9,0.8-2.7,0.6-4.9,1.1c-3.1,2.7-7.2,6.3-11.6,10.2c-0.4,7.4-6.2,12.1-11.9,16.4c-5.2,3.9-6.2,9.6-7.9,15
		c-0.4,1.4,2.6,5.6,4.2,5.6c15.9,0.4,19.9,12.8,25.3,24c0.8,1.6,1.7,3.2,3,4.4c3.7,3.3,5.8,7.2,5.3,13c10.2,0.4,16.7,6.1,21.1,15.2
		c-6,2.6-12.1-3.9-18.2,0.9c4.5,0.9,8.5,1.5,12.4,2.5c2.3,0.6,5.1,1.2,3,5c-0.4,0.7,1.2,2.7,2,4c2.4,4.3,1.3,5.7-2.7,8
		c-4,2.3-7.2,5.9-10.9,8.9c-2,1.6-4.1,3-6.4,4.6c0.6,1,1.8,2.7,2.9,4.4c1.2-1.6,2.3-3.3,3.7-4.6c3.3-3.1,7.5-3,10.8,0
		c4.8,4.3,4.8,4.3,11.5,5.3c-1.6,2.4-3.1,4.4-4.5,6.5c5.2,0.5,4.2,4.8,3.6,7.6c-0.3,1.6-3.5,2.6-5.5,4c0.4,0.6,2.5,2.4,2.5,4.2
		c0.1,2-1.8,4-2.9,6.2c3.7,1.4,4.6,4.7,3.2,8.5c-0.9,2.5-9,5.3-11.2,3.8c-1.5,3.8-3.9,7.4-4,11.1c-0.2,6.6-5.1,10.5-7.2,16
		c-0.5,1.4-1.5,2.6-1.9,4c-1.3,5.4-1.4,5.4-6.5,1.9c0,2.5,0,4.9,0,8.2c0.2,0.2,1.2,1.1,2.7,2.3c-1.9,1.5-3.5,2.8-5.5,4.5
		c3,2.9,3.7,6,1.1,8.5c0.8,2.6,1.4,4.8,2.1,7c-2.2-1-4.4-2-8.2-3.7c1.2,2.4,1.9,3.9,3.2,6.3c-2.7,3.1-6.3,7.1-10,11.4
		c-0.3,1.7-0.6,4.3-1.2,8c-2.7-1.6-4.5-2.8-6.7-4.1c-0.2,4.8-3.1,5.5-7.4,4.4c0.8,0.6,1.7,1.3,2.7,2.1c-3,5.2-6,10.3-9.1,15.7
		c-0.7-0.9-1.6-2.2-3.3-4.4c-1.5,3-2.8,5.5-4.2,8.3c-1.3-0.7-2.6-1.3-4.6-2.3c-1.2,3.4-2.3,6.7-3.7,10.6c-0.5,0.1-1.7,0.2-3.2,0.4
		c2.1,5,0,6.9-4.6,7.2c-1.4,0.1-2.7,1.3-4.2,1.6c-2.8,0.5-5.7,0.8-9,1.3c0,1-0.1,3.1-0.3,5.6c-3.5-1.4-6.7-3.7-9.5-3.4
		c-2.5,0.3-4.5,3.7-7.1,6.1c-0.7-1.7-1.4-3.2-2-4.8c-0.3,0-0.6,0-0.9,0c-0.4,2.2-0.7,4.4-1.2,7.1c-2.1-1.2-3.7-2.2-4.6-2.7
		c-0.5,2.7-0.7,5.4-1.7,7.8c-0.3,0.6-3.5,0.9-4.5,0.1c-1.1-0.8-1.1-3-1.9-5.6c-1.1-0.8-3.2-2.4-6.4-4.8c-0.4,2.8-0.1,5.3-1.1,6.9
		c-1.9,2.9-4.3,6.7-7.2,7.5c-3.8,0.9-5.5,4.1-8.6,5.6c-3.8,1.8-5.4,3.3-6.3-1.9c0-0.2-0.9-0.2-1.4-0.3c1.3,5.8,1.3,5.8-7.4,4.1
		c1.1,5.1-1.4,4.9-5.8,5.6c-8.6,1.4-16.8,5-25.4,7.7c1,2.3,1.7,3.9,2.9,6.6c-3.4-0.6-5.7-1-8-1.4c2.1,2.9,4.3,6,6.4,9.1
		c2,3,0.2,7.3-3.4,7.4c-3.7,0.1-8.8,1.9-8.8-5c0-0.9-1.2-1.9-1.9-2.8c-4.1-5.4-4.7-10.9-0.4-16.2c-1.7-2-3.2-3.9-4.7-5.8
		c-0.7,5.1-3.3,6.4-8.1,4.2c-1.5-0.7-3.1-1.2-4.6-1.8c-2.7-1-5.4-2.1-8-3.1c0,0.2,0,1.5,0,3.4c-3.5,0.4-6.9,1.4-10.2,1.1
		c-3.4-0.3-6.7-1.5-9.9-2.7c-5.6-1.9-11.5-3.4-16.6-6.3c-5.9-3.4-5.9-11.7-0.7-16.3c0.6-0.5,1-1.3,2.1-2.8c-2.7-0.9-4.8-2.1-7.1-2.4
		c-3.9-0.6-8-0.4-11.9-1.1c-2.7-0.4-5.5-1.3-7.9-2.6c-8-4.4-7.6-4.3-12.5,3.2c-1.5,2.4-4.9,4-7.7,5.1c-3.2,1.3-6.7,2.3-9.9,3.4
		c-3.6,1.3-8.5-1.1-12.8-1.9c-0.3-0.1-0.6-0.2-1.2-0.3c-2.1,3.7-4.6,3.1-8.2,1.4c-2.2-1-5.5,0-8.2,0.6c-3.4,0.7-6.7,2.5-10.2,2.8
		c-5,0.4-6.4,1.8-5.4,7c1.3,6.7,2.6,13.3,3.9,19.9c-10.5,3.2-13.7,0.8-15.7-10.3c-5.4,1.3-10.8,2.4-16.2,3.9c-4.3,1.2-5.8-1-6.6-4.6
		c-0.5-2.4-0.9-4.9-1.4-7.9c-5.1-0.5-10.3-1-15.8-1.5c2.9-6.7,5.5-12.8,8.3-19.3c-4.6-2.5-12.8-0.1-13-8.1
		c-0.2-5.2-5.8-10.1-0.7-15.8c-7.3,0.9-14.2,1.8-21.8,2.7c0-1.8-0.1-3.5,0-5.1c0.1-1.3,0.8-2.8,0.4-3.9c-3.9-10,3.5-15.3,8.6-21.6
		c0.9-1.1,1.4-2.7,2.4-3.7c1.2-1.2,2.6-2.5,4.1-2.9c3.9-1,6.2-4.2,5.6-8.4c-0.1-0.8-0.3-1.8,0.1-2.4c5.2-8,2.4-17.1,3-25.7
		c0.1-1.1-2.2-3.3-3.6-3.5c-3.1-0.4-4.3-1.8-4.8-4.7c-1.3-6.5-4.8-11.6-11.3-16.2c-1.1,2.8-2.6,5.2-3,7.8c-0.8,5.3-7.6,8.9-12.3,6.1
		c-4.5-2.6-9-5-13.5-7.6c-7.7-4.5-14.5-2.9-21.2,2.3c-7,5.5-14,11-21.5,15.8c-3.5,2.2-8,3.3-12.2,3.7c-6.9,0.7-14,0.4-21,0.3
		c-1,0-2.7-1.7-2.8-2.7c-0.3-3-0.1-6,0.4-9c0.5-3.2-0.4-4.5-3.6-3.8c-3.5,0.7-4.3-1.1-4.4-4.2c-0.3-7.6-1.9-8.7-9.4-9.6
		c-4.3-0.5-8.8-2-12.5-4.2c-6.9-4.2-13.6-4.3-19.2,1.5c-2.3,2.4-4,5.6-5.7,8.5c-1.4,2.4-2.9,5.2-5.9,3.6c-1.2-0.6-1.1-3.8-1.4-5.9
		c-0.1-0.6,0.3-1.3,0.5-1.9c2.2-7.6,1-9.2-7-8.6c-3.5,0.3-7,1.3-10.4,1c-4.5-0.4-9.1-1.4-13.5-2.8c-6.1-1.9-12.2-6.5-18-6.1
		c-6.2,0.5-6.7-2.4-8.4-6c-0.3-0.7-1.7-1.3-2.5-1.3c-6.1,0.5-10.2-0.8-8-7.2c-4.2-2.4-8.1-4-11.3-6.6c-1.8-1.4-3.2-4.1-3.5-6.4
		c-0.9-5.6-1.6-6.5-6.8-4.9c-3.3,1-4.8-0.1-5.9-3.3c-0.8-2.3-2.3-4.8-4.2-6.2c-6.3-4.7-12-9.6-15.4-17c-3.1-6.7-9.8-7.3-15.4-2
		c-2.6,2.5-4.3,1.9-5.6-1.1c-0.7-1.6-1.2-4.1-2.4-4.7c-11.1-5.4-17.1-16.7-26.9-23.4c-3.2-2.2-4-4.8-3.6-9
		c0.6-6.2-0.1-12.6-0.7-18.9c-0.5-5.1,1.3-7.6,6.7-7.9c0.4,0.7,0.7,1.6,1.2,2.4c1,1.5,2.2,3,3.3,4.5c1.3-1.4,3.7-2.8,3.7-4.2
		c0-5.2-0.8-10.4-1.3-15.6c-0.4-4.7-1.4-9.5-1-14.2c0.2-1.9,3.2-3.6,4.9-5.4c-2.9-4.2-7-8.4-8.9-13.5c-1.9-5-1.5-10.8-2.1-16.7
		c-1.5-0.2-3.3-0.7-5-0.8c-6.9-0.2-11.7-3.5-14.3-9.8c-1-2.6-2.3-4.1-5.4-4c-3.6,0.1-4.5-2.9-3.8-5.7c3.8-14.6-1.8-17.3-12.6-24.1
		c-2.5-1.6-4.5-3.9-6.8-5.9c0.1-0.7,0.3-1.4,0.4-2.1c3.8-0.7,7.6-1.3,10.7-1.9c0.2-2.9,0.4-6.5,0.7-10c0.3-3,1-5.9,1.2-8.9
		c0.6-7.7,0.6-11-8.8-9.7c-4.4,0.6-6.1-2.6-6.9-5.7c-0.4-1.4,1.5-4,3-5.1c4.5-3.3,0.3-5.4-0.8-8.2c0.4-0.5,0.8-1.7,1.2-1.7
		c5.3-0.4,6.5-5.5,9.8-8.1c3.1-2.3,6.6-4.2,10.2-5.7c3.5-1.4,7.3-2.4,11-3c3.4-0.6,6.9-0.8,10.3-0.4c3.7,0.4,5.9,2.4,3.5,6.5
		c8.3,2.7,8.6,2.3,13.8-3.7c1.8-2.1,5.3-3.2,8.2-3.6c3-0.5,5.7-0.6,7.7-3.6c2-3,5-3,8.4-1.7c2.5,1,5.6,1.2,8.4,0.8
		c8.6-1.1,17.1-2.9,25.6-4c4.3-0.6,6.3-2,6.6-6.7c0.3-4.3,0.6-8.4,6.5-11.2c4.2-2,11.1-6.4,8.7-15.1c-1.7-6.2-0.6-13.2-1-19.8
		c-0.1-2.1-0.6-4.2-1.3-6.2c-1.1-3.7,0.5-6.2,4-4.8c5.1,2,9.7,1,14.6-0.5c7.5-2.3,14.5-1.4,20.5,5c-2.3-9.4,2.5-16,7.3-22.6
		c3.5-4.8,6.8-9.9,10.4-14.7c2.4-3.2,4.8-3.7,8.3-0.6c6.8,6,15.5,7.7,24.1,8.1c6.2,0.3,8.7-2.8,8.3-8.9c-0.3-6,1.2-11.4,5.1-15.7
		c1.7-1.8,4.9-3.7,7.1-3.4c6.6,0.9,10.2-2.4,12.4-7.7c2.1-4.9,4.4-6.1,10.3-5c6.4,1.2,9,2,7,9.2c-0.7,2.7,1.4,7,3.5,9.4
		c4.2,4.8,7.7,10.1,15.2,11.9c6.5,1.6,10.2,7.6,11,14.9c0.3,2.9,1.1,6,2.4,8.6c3.8,7.4,2.9,17.9-2.1,24.6c-1.6,2.2-3.2,4.8-3.6,7.4
		c-0.6,3.7-0.3,6.4,4.7,8.6c6.7,3,13.4,3.6,20.2,4.6c9.3,1.4,17.5,4.7,24.3,11.6c4.7,4.8,9.3,10.2,17,10.4c0.7,0,1.7,0.7,1.9,1.3
		c1.9,5.9,3.2,12.1,5.5,17.9c1.9,4.8,4.7,9.3,7.2,13.9c0.3,0.6,1.4,0.9,2.1,1c10.4,1.8,20.8,3.9,31.3,5.3c8,1.1,16.2,1.1,24.2,1.8
		c8.7,0.8,17.4,1.8,26.1,2.9c1.6,0.2,3.9,1.5,4.4,2.8c1.4,3.7,4.5,4.1,7.5,5c2.5,0.7,5.2,1.3,7.5,2.5c7.8,4,15.5,8.1,24.4,4.2
		c2.6,5.7,6.8,6.5,11.7,3.2c11.5-7.8,24-13.9,37.7-16.5c6.5-1.2,13.3-0.9,19.9-0.5c9.7,0.7,17.1-4.9,25.2-8.4
		c2.1-0.9,3.5-3.9,4.8-6.2c3.1-5.2,7.2-8.9,12.9-11.3c6.4-2.8,6.5-5.1,1.5-10c-5.2-5.2-5-18.2,0.3-23.3c2.8-2.6,8.8-2.7,12-0.1
		c7.7,6.2,17.9,5.2,24.2-2.5c0.8-1,1.8-2,2.4-3.2c2.6-5,6.5-6.9,12.2-6.8c8.5,0.2,13.4-4.7,14.2-13.1c0.8-7.5,5.8-11.2,14.7-10.6
		c-0.5-5,3.3-4.9,6.6-7c9.5-6.1,19.1-4,28.9-3.5c2-5.1,0.6-9-3.7-11.8c-7.5-4.9-15.1-9.7-22.7-14.5c-2.6-1.6-4.7-1.2-6.4,1.4
		c-0.9,1.4-1.9,2.7-2.8,4.1c-1.8,2.7-3.8,3-7.1,2.5c-4.4-0.7-9,0.3-13.5,0.9c-2.2,0.3-3.7,3.9-6.5,1.3c-2.9-2.7-4.5-5.8-3.4-9.8
		c0.8-2.9,1.8-5.7,2.6-8.6c2.6-10.3,5-20.6,7.7-31.5c2.8,1.3,5.2,2.1,7.2,3.4c5.7,3.8,10.6,3.3,15.5-1.4c2.8-2.8,5.9-5.3,9.1-7.6
		c4.3-3.2,4.7-5.1,1.8-9.7c-0.4-0.6-0.6-1.6-0.4-2.2c1.6-5.2,3.4-10.3,5.1-15.4c0.8-2.4,1.3-4.8,2.1-7.1c0.7-2.2,1.1-4.6,2.4-6.5
		c5-7.2,5.1-9.1-0.2-16.9c-0.9,0.4-1.9,1.3-2.9,1.3c-1.2,0-2.7-0.3-3.5-1.1c-0.5-0.5-0.4-2.2,0.1-3.1c4.7-9.3,11-16.1,22.6-17.1
		c6-0.5,11.8-4,17.7-6.2C802.7,0,805.4,0,808,0z"/>
	<path d="M635,1024c-2.7-5.3-4.7-10.7-4.2-16.8c7.3,0.4,11.3,10.4,7.2,16.8C637,1024,636,1024,635,1024z"/>
	<path d="M632.9,765.2c-1.3-6.5,1.2-12,8.1-16.1c4.9-2.9,8.7-7.6,15.1-8.1c5.4-0.4,10.9-1,16.1-2.5c3.9-1.1,6.6-0.3,9,2.1
		c1,1,1.9,3.6,1.3,4.6c-4.8,8.9-9.5,17.9-15.1,26.2c-2.6,3.9-6.7,7.6-11,9.4c-3.1,1.3-7.7-0.3-11.5-1c-2.9-0.6-5.7-1.6-8.4-3
		c-1.4-0.7-2.8-2.3-3.2-3.7C632.8,771,633.1,768.6,632.9,765.2z"/>
	<path d="M855.5,688.7c-1.9-2.7-3.5-4.9-5.1-7.2c-1.4-2-3.4-3.7-4.2-5.9c-1-2.6-1.6-5.6-1.6-8.5c-0.1-3.6,0.5-7.3,0.9-10.9
		c0.2-1.4,0.4-3.1,1.2-4.2c5.2-7.3,10.5-14.5,15.9-21.7c0.8-1.1,1.8-2,2.8-2.8c4-3.3,7.8-1.9,8.1,3.4c0.2,3.5-0.5,7.3-1.6,10.7
		c-4.8,15-9.9,29.8-15,44.7C856.6,687,856.2,687.5,855.5,688.7z"/>
	<path d="M741.9,820.7c-2,3.9-5.1,6.1-9.3,4.7c-1.7-0.6-3.8-3.1-3.9-4.9c-0.1-2.2,1.6-4.5,2.7-7.3c-1.9-1.8-6.4-4.1-2.9-9.1
		c1.5-2.2,7.6-1.5,10,0.9c2.7,2.7,1.8,5.7-2.7,9.6c0.8,0.4,1.5,0.8,2.1,1.1c1.8-2,3.5-3.9,4.9-5.4c-0.6-3.1-1.4-6.3-1.8-9.5
		c-0.1-0.8,0.9-2.1,1.8-2.7c2.9-1.7,11-0.1,11.8,2.7c1.8,6.6-4.7,6.8-8.2,9.6c3.7,2.1,5.2,5.4,2.7,8.9c-1.2,1.6-4.3,1.9-6.5,2.8
		C742.3,821.7,742.1,821.2,741.9,820.7z"/>
	<path d="M746,912c-0.3,2.6,0.2,5.6-1,7.7c-1.5,2.8-4.7,3.1-7.4,1.3c-2.9-2-3.3-4.7-1.6-7.9c0.7-1.3,1.4-3.1,1.2-4.4
		c-0.7-3.3-0.6-6.4,2.8-7.5c1.9-0.6,5.1,0,6.6,1.3c2.6,2.3,2,5.4-0.5,7.9c-0.4,0.4-0.9,0.9-1.3,1.4C745.2,911.8,745.6,911.9,746,912
		z"/>
	<path d="M707.1,783.1c4.6,0,8.5,4.6,8.3,10.2c-0.1,3.6-2,6-5.7,6.2c-4.1,0.2-9.5-5.2-9.5-9.1C700.1,784.9,701.8,783.1,707.1,783.1z
		"/>
	<path d="M677.2,815.4c1-3.3,1.2-5.5,2.3-6.9c1.2-1.4,3.4-2.5,5.3-2.7c1-0.1,2.3,1.9,3.4,3c0.6,0.6,0.9,1.4,1.4,2
		c1.5,2,4.6,3.9,1.6,6.5c-2.1,1.8-5.3,4.1-7.6,3.7C681.1,820.6,679.2,817.3,677.2,815.4z"/>
	<path d="M799.6,829.1c-4.5,0-7.5-2.6-7.5-6.8c0-3.7,2.8-6.6,6.6-6.7c4.1-0.1,9.5,4.5,9.4,8.1C808,826.5,804.1,829,799.6,829.1z"/>
	<path d="M768.1,913.9c-0.1,3.8-3.1,6.8-7,6.8c-4.1,0-7.2-3.1-7.1-7.3c0.1-3.9,3.2-6.9,7-6.9C764.9,906.5,768.1,909.8,768.1,913.9z"
		/>
	<path d="M767.3,892.3c2.8,0.4,5.4,1.6,5.5,5.3c0.1,3.5-4,7.9-7.1,8c-3.1,0.1-6.8-4-6.8-7.5C758.9,894.8,762.3,892.2,767.3,892.3z"
		/>
	<path d="M910.6,605.5c0.9-4.6,3.8-7.8,7-7.8c3.1,0.1,8.2,4.4,7.9,7.3c-0.5,4.8-5.2,5.2-8.3,5.5
		C915.2,610.7,912.8,607.3,910.6,605.5z"/>
	<path d="M716.9,811.8c-0.5,3.8-2.5,6.2-6.4,6.5c-3.6,0.3-6.8-2.9-6.6-6.6c0.3-3.9,2.5-6.1,6.5-6.1
		C714.4,805.6,716.3,808.1,716.9,811.8z"/>
	<path d="M895.4,607.4c5.9,0,9.8,2.7,9.8,5.7c0,3-3.7,6.6-7,6.7c-3,0.1-7-4.6-6.4-8.7C892.1,609.4,894.7,608.1,895.4,607.4z"/>
	<path d="M830.8,665.9c2.3,1.7,5.4,3,6.8,5.3c1.1,1.8-6.7,6.5-10.4,5.6c-1.4-0.4-3.1-2.9-3.1-4.5C824.1,669,825.7,666.2,830.8,665.9
		z"/>
	<path d="M721.4,932.9c-0.3,3.7-2.1,6.1-5.8,6.2c-3.4,0-5.6-1.8-5.8-5.4c-0.3-3.8,1.8-6.1,5.4-6.3
		C718.7,927.2,720.9,929.3,721.4,932.9z"/>
	<path d="M692.8,780.9c1.9,1.8,4.9,3.4,5.3,5.5c0.8,3.5-2.6,5.1-5.5,4.5c-3.1-0.7-8-2.4-8.3-4.2
		C683.6,781.9,688.4,782.4,692.8,780.9z"/>
	<path d="M721.4,920.4c-0.6,3.6-2.5,5.8-6.3,5.5c-3.5-0.2-5.4-2.2-5.3-5.8c0-3.9,2.3-5.9,5.9-5.8
		C719.3,914.3,721.2,916.7,721.4,920.4z"/>
	<path d="M736.4,900.4c-1.6-1.4-3.3-2.2-3.7-3.5c-0.4-1.2,0.2-3.8,1.1-4.2c2.3-1.2,3.5-2.2,3.3-5c-0.1-1,2.1-2.9,3.2-2.9
		c1.5,0,3.5,1.2,4.2,2.5c0.5,1-0.3,3.9-1.1,4.2c-3,1-3,3.1-3.4,5.5C739.7,898.1,737.8,899,736.4,900.4z"/>
	<path d="M725.5,961.3c1.2-3,1.5-5.6,3-7c1.3-1.3,4.7-2.3,5.8-1.6c2,1.4,3.1,4.2,4.3,6.6c0.1,0.2-1.5,1.8-2.3,1.9
		C733.1,961.4,729.8,961.3,725.5,961.3z"/>
	<path d="M872.1,688.8c-2.6-1-5.2-1.4-7-2.9c-1-0.8-1.2-3.6-0.6-5c0.4-1,2.9-1.8,4.2-1.5c2,0.5,3.9,1.9,5.4,3.3c1.1,1,1.5,2.7,2.2,4
		C874.9,687.4,873.5,688.1,872.1,688.8z"/>
	<path d="M691.2,1019.4c-0.9-0.6-2.4-1.5-4-2.4c1.5-1.4,2.7-3.3,4.5-4.1c2-0.9,4.6-1.3,6.8-1c1.3,0.2,2.4,2.2,3.6,3.4
		c-1,0.9-1.9,2.2-3.1,2.6C696.9,1018.7,694.5,1018.8,691.2,1019.4z"/>
	<path d="M705.9,937.5c-1.9,1.2-4,3.6-5.8,3.4c-1.9-0.2-4.5-2.8-4.9-4.7c-0.6-3.1,1.9-5.5,5.1-5c2.1,0.4,3.8,2.6,5.7,4
		C706,936,705.9,936.7,705.9,937.5z"/>
	<path d="M700.6,801.7c-1.6,0.9-4,3.1-4.7,2.6c-2.2-1.4-3.8-3.9-5.7-5.9c1.2-1,2.8-3,3.7-2.8c2.5,0.8,4.6,2.5,6.9,3.8
		C700.7,800.2,700.7,801,700.6,801.7z"/>
	<path d="M752.5,888.1c1.2,1.8,3,3.6,3.4,5.5c0.2,1.1-2,2.7-3.1,4c-1.5-1.6-3.6-3-4.4-5c-0.4-1,1.4-2.9,2.1-4.4
		C751.1,888.2,751.8,888.1,752.5,888.1z"/>
	<path d="M774.1,718.3c-3,1.9-4.6,3.8-6.1,3.7c-1.3,0-3.9-2.5-3.7-3.4c0.3-1.7,2.2-3.9,3.7-4.1C769.4,714.2,771.1,716.3,774.1,718.3
		z"/>
	<path d="M788.3,724.3c-2.6,2.1-4.2,4.2-5.6,4.1c-1.5-0.1-2.9-2.3-4.4-3.6c1.3-1.4,2.5-3.7,4-4C783.8,720.6,785.5,722.6,788.3,724.3
		z"/>
</g>
</svg>
