<svg xmlns="http://www.w3.org/2000/svg" viewBox="0 0 1000 1000"><defs><style>.a{fill:#d8d8d8;}.b{fill:#16a34a;}</style></defs><title>logo</title><circle class="a" cx="500" cy="500" r="500"/><path d="M255.8,442.2,224.2,561.6H194.4L174.6,485a65.5,65.5,0,0,1-1.9-13.4h-.3a74.5,74.5,0,0,1-2.2,13.4l-20.3,76.6h-31L87.5,442.2h29.4l16.8,79.5a110.7,110.7,0,0,1,1.6,13.7h.5a63.2,63.2,0,0,1,2.4-14l21.6-79.2h28.8l19.6,80.2a110.1,110.1,0,0,1,1.9,12.8h.3a77.2,77.2,0,0,1,1.8-13.3l16.4-79.7Z"/><path d="M325.6,563.7c-17.1,0-31-5.6-41.8-16.7s-16.1-25.6-16.1-43.5,5.5-34.1,16.4-45.8,25.4-17.5,43.4-17.5,30.8,5.6,41.4,16.8,15.7,25.8,15.7,44.1-5.4,33.9-16.3,45.3S343.2,563.7,325.6,563.7Zm1.2-100.3c-9.4,0-16.9,3.5-22.5,10.6s-8.3,16.4-8.3,28.1,2.8,21.2,8.3,28a26.7,26.7,0,0,0,21.8,10.4c9.3,0,16.6-3.4,22.1-10.1s8.1-15.9,8.1-27.8-2.6-22-7.9-28.9S335.9,463.4,326.8,463.4Z"/><path d="M508.8,561.6H478l-18.6-30.7c-1.4-2.3-2.7-4.4-4-6.3a38.9,38.9,0,0,0-3.9-4.7,15.5,15.5,0,0,0-4-3,10.7,10.7,0,0,0-4.7-1h-7.2v45.7H408.7V442.2h42.6c29,0,43.5,10.9,43.5,32.5a35.1,35.1,0,0,1-1.9,11.5,31.6,31.6,0,0,1-5.5,9.6,35.1,35.1,0,0,1-8.4,7.3,47.6,47.6,0,0,1-11,4.8v.3a19.3,19.3,0,0,1,5.1,2.7,49.9,49.9,0,0,1,4.9,4.4c1.5,1.7,3,3.5,4.4,5.4s2.7,3.8,3.9,5.6Zm-73.2-99.2v33.2h11.6c5.8,0,10.4-1.7,13.9-5a16.6,16.6,0,0,0,5.4-12.6c0-10.4-6.3-15.6-18.8-15.6Z"/><path class="b" d="M595.3,561.6H524.2V442.2h26.9v97.6h44.2Z"/><path d="M615.6,561.6V442.2h42.3q63.6,0,63.6,58.2c0,18.6-5.8,33.5-17.4,44.5s-27,16.7-46.2,16.7Zm26.9-97.5v75.7h13.3c11.7,0,20.8-3.5,27.4-10.5s10-16.5,10-28.5-3.3-20.4-9.9-26.9-15.8-9.8-27.7-9.8Z"/><path d="M816.6,561.6H745.5V442.2h26.9v97.6h44.2Z"/><path d="M908.5,561.6H836.9V442.2h68.9v21.9h-42v26.6h39.1v21.8H863.8v27.3h44.7Z"/></svg>